<svg xmlns="http://www.w3.org/2000/svg" viewBox="0 -8 136 86" fill="none">
  <path d="M 6 70 H 128" stroke="#E2E8F0" stroke-width="2.75" stroke-linecap="round"/>
  <g stroke="#E2E8F0" stroke-width="1.5" stroke-linecap="round">
    <path d="M 16 70 l -3 5"/><path d="M 28 70 l -3 5"/><path d="M 40 70 l -3 5"/><path d="M 52 70 l -3 5"/><path d="M 64 70 l -3 5"/>
    <path d="M 76 70 l -3 5"/><path d="M 88 70 l -3 5"/><path d="M 100 70 l -3 5"/><path d="M 112 70 l -3 5"/><path d="M 124 70 l -3 5"/>
  </g>
  <path d="M 56 70 H 90 V 46 Z" fill="#E2E8F0"/>
  <path d="M 8 40 A 35.94 35.94 0 1 0 78 24 Z" transform="translate(0 0.37)" fill="#F8FAFC" stroke="#3B82F6" stroke-width="2.6" stroke-linejoin="round"/>
  <path d="M 78 24.37 L 108.33 3.12" stroke="#E2E8F0" stroke-width="2.15" stroke-linecap="round"/>
  <circle cx="112" cy="8.37" r="6.4" fill="#F8FAFC" stroke="#E2E8F0" stroke-width="2.15"/>
  <circle cx="112" cy="8.37" r="1.55" fill="#E2E8F0"/>
  <path d="M 112 14.77 V 22.77" stroke="#E2E8F0" stroke-width="2.15" stroke-linecap="round"/>
  <path d="M 106.8 22.77 h 10.4 a 1.5 1.5 0 0 1 1.5 1.5 v 8.6 a 1.5 1.5 0 0 1 -1.5 1.5 h -10.4 a 1.5 1.5 0 0 1 -1.5 -1.5 v -8.6 a 1.5 1.5 0 0 1 1.5 -1.5 z" fill="#E2E8F0"/>
  <text x="46" y="33" text-anchor="middle" font-family="Be Vietnam Pro, ui-sans-serif, system-ui" font-size="16" font-weight="700" fill="#E2E8F0" letter-spacing="-0.04em" transform="rotate(-13 46 33)">Th¡ch</text>
</svg>
