<svg xmlns="http://www.w3.org/2000/svg" viewBox="0 0 640 420" font-family="sans-serif"><rect width="640" height="420" fill="#ffffff"/><line x1="110" y1="200" x2="480" y2="200" stroke="#a16207" stroke-width="14" stroke-linecap="round"/><line x1="110" y1="200" x2="110" y2="40" stroke="#d6b88a" stroke-width="22" stroke-linecap="round"/><circle cx="110" cy="200" r="9" fill="#fff" stroke="#1f2937" stroke-width="3"/><rect x="452" y="156" width="16" height="30" fill="#374151"/><rect x="472" y="156" width="16" height="30" fill="#374151"/><line x1="150" y1="192" x2="150.0" y2="41.5" stroke="#f87171" stroke-width="2.8"/><path d="M144.2,51.5 L150.0,41.5 L155.8,51.5" fill="none" stroke="#f87171" stroke-width="2.8" stroke-linejoin="miter" stroke-miterlimit="10" stroke-linecap="butt"/><line x1="466" y1="208" x2="466.0" y2="225.2" stroke="#38bdf8" stroke-width="2.8"/><path d="M471.2,216.3 L466.0,225.2 L460.8,216.3" fill="none" stroke="#38bdf8" stroke-width="2.8" stroke-linejoin="miter" stroke-miterlimit="10" stroke-linecap="butt"/><line x1="110" y1="210" x2="110.0" y2="343.4" stroke="#fb923c" stroke-width="2.8"/><path d="M115.8,333.4 L110.0,343.4 L104.2,333.4" fill="none" stroke="#fb923c" stroke-width="2.8" stroke-linejoin="miter" stroke-miterlimit="10" stroke-linecap="butt"/><text x="164" y="100" fill="#b91c1c" font-size="15" font-weight="600" text-anchor="start">F cơ ≈ 430 N</text><text x="482" y="252" fill="#0369a1" font-size="15" font-weight="600" text-anchor="start">P tạ ≈ 49 N</text><text x="126" y="320" fill="#c2410c" font-size="15" font-weight="600" text-anchor="start">Lực ở khuỷu ≈ 380 N</text><text x="100" y="234" fill="#1f2937" font-size="14" font-weight="600" text-anchor="end">Khớp khuỷu</text><text x="100" y="252" fill="#1f2937" font-size="14" font-weight="600" text-anchor="end">(điểm xoay)</text><line x1="110" y1="210" x2="110" y2="384" stroke="#9ca3af" stroke-width="1" stroke-dasharray="4 4"/><line x1="150" y1="210" x2="150" y2="384" stroke="#9ca3af" stroke-width="1" stroke-dasharray="4 4"/><line x1="466" y1="210" x2="466" y2="384" stroke="#9ca3af" stroke-width="1" stroke-dasharray="4 4"/><line x1="110" y1="370" x2="150" y2="370" stroke="#1f2937" stroke-width="2"/><line x1="110" y1="384" x2="466" y2="384" stroke="#1f2937" stroke-width="2"/><text x="110.0" y="366" fill="#1f2937" font-size="14" font-weight="600" text-anchor="start">d₁ = 4 cm</text><text x="300" y="405" fill="#1f2937" font-size="14" font-weight="600" text-anchor="middle">d₂ = 35 cm</text><text x="320" y="26" fill="#374151" font-size="13" font-weight="500" text-anchor="middle">Độ dài mũi tên tỉ lệ với độ lớn lực</text></svg>