<svg xmlns="http://www.w3.org/2000/svg" viewBox="0 0 480 280" font-family="sans-serif">
  <rect width="480" height="280" fill="#ffffff"/>
  <circle cx="118" cy="132" r="52" fill="none" stroke="#1f2937" stroke-width="4"/>
  <circle cx="118" cy="132" r="8" fill="#1f2937"/>
  <path d="M118,86 A46,46 0 0 1 164,132" fill="none" stroke="#1d4ed8" stroke-width="3"/>
  <path d="M156,120 L168,132 L154,140" fill="none" stroke="#1d4ed8" stroke-width="3"/>
  <text x="118" y="40" fill="#1d4ed8" font-size="20" font-weight="600" text-anchor="middle">bánh xe quay</text>
  <line x1="170" y1="132" x2="230" y2="132" stroke="#1f2937" stroke-width="4"/>
  <rect x="230" y="92" width="64" height="80" rx="6" fill="#fee2e2" stroke="#1f2937" stroke-width="3"/>
  <text x="262" y="128" fill="#1f2937" font-size="20" font-weight="700" text-anchor="middle">N</text>
  <text x="262" y="156" fill="#1f2937" font-size="20" font-weight="700" text-anchor="middle">S</text>
  <rect x="360" y="100" width="70" height="64" rx="4" fill="#fbbf24" stroke="#1f2937" stroke-width="3"/>
  <text x="395" y="138" fill="#1f2937" font-size="20" font-weight="700" text-anchor="middle">pin</text>
  <line x1="294" y1="120" x2="360" y2="120" stroke="#b45309" stroke-width="3"/>
  <path d="M348,112 L362,120 L348,128" fill="none" stroke="#b45309" stroke-width="3"/>
  <text x="328" y="108" fill="#b45309" font-size="18" font-weight="600" text-anchor="middle">dòng về pin</text>
  <path d="M78,96 A36,36 0 0 0 78,168" fill="none" stroke="#b91c1c" stroke-width="3" stroke-dasharray="6 5"/>
  <path d="M70,156 L78,172 L88,156" fill="none" stroke="#b91c1c" stroke-width="3"/>
  <text x="78" y="204" fill="#b91c1c" font-size="20" font-weight="600" text-anchor="middle">mômen hãm</text>
  <text x="250" y="250" fill="#1f2937" font-size="20" font-weight="600" text-anchor="middle">Dòng cảm ứng ngược chiều quay</text>
</svg>
